<svg xmlns="http://www.w3.org/2000/svg" viewBox="0 0 44 43.781"><path d="M42.9 22.968H1.1l-.013-.002a1.098 1.098 0 0 1-1.002-.675 1.069 1.069 0 0 1-.079-.39c0-.009-.006-.018-.006-.027 0-.008.006-.017.006-.027a1.077 1.077 0 0 1 .317-.746L21.222.304a1.102 1.102 0 0 1 1.556 0c.43.428.43 1.12 0 1.548L3.756 20.781H42.9c.607 0 1.1.487 1.1 1.092 0 .606-.493 1.095-1.1 1.095zM8.478 27.669l4.966 4.942 9.334 9.288a1.09 1.09 0 0 1 0 1.548 1.105 1.105 0 0 1-1.557 0l-4.966-4.942-9.334-9.288a1.09 1.09 0 0 1 0-1.548 1.105 1.105 0 0 1 1.557 0z"/></svg>