<svg xmlns="http://www.w3.org/2000/svg" viewBox="15.167 -16.333 1000.636 1000.678"><path fill="#FC5830" d="M495.01 233.034l117.345 117.11 73.699-258.351h-96.79l-25.828 90.571-68.426-68.426-68.314 68.426-25.856-90.571h-96.701l73.65 258.351z"/><path fill="#3DB1FA" d="M663.912 496.213L495.01 327.377 326.231 496.213zm66.191-403.506L675.238 282.99c-7.117 24.803 7.193 50.817 31.885 57.899 24.892 7.181 45.658 10.477 52.779-14.376l60.022-207.954c7.144-24.742-7.12-50.693-31.812-57.786-24.914-7.168-50.766 7.092-58.009 31.934"/><path fill="#3DB1FA" d="M770.341 218.87h141.326c19.372 0 35.008-15.586 35.008-34.904 0-19.472-15.635-35.235-35.008-35.235H770.341c-19.369 0-35.08 15.762-35.08 35.235 0 19.318 15.712 34.904 35.08 34.904M408.283 626.789h185.713c19.422 0 35.108-15.639 35.108-34.958 0-19.323-15.686-35.108-35.108-35.108H408.283c-19.269 0-35.019 15.785-35.019 35.108 0 19.319 15.751 34.958 35.019 34.958"/><path fill="#3DB1FA" d="M455.117 860.96V603.119c0-25.752-21.027-46.718-46.833-46.718-25.752 0-46.618 20.966-46.618 46.718V860.96c0 25.825 20.866 46.756 46.618 46.756 25.805 0 46.833-20.931 46.833-46.756m184.84 0V603.119c0-25.752-20.843-46.718-46.599-46.718-25.874 0-46.672 20.966-46.672 46.718V860.96c0 25.825 20.798 46.756 46.672 46.756 25.756 0 46.599-20.931 46.599-46.756m-351.991 1.444V366.218c0-25.802-20.743 20.917-46.622 20.917-25.802 0-46.772 20.958-46.772 46.71v428.56c0 25.878 20.97 46.688 46.772 46.688 25.878-.001 46.622-20.811 46.622-46.689"/><path fill="#3DB1FA" d="M240.983 333.007l28.475 15.486-28.475-15.486 28.475 15.486-28.475-15.486h-.115c-.734 1.225-16.07 29.213-39.59 64.393-11.688 17.598-25.653 37.082-40.65 55.863-14.902 18.835-31.137 36.882-47.033 51.88-14.265 13.089-15.013 35.345-1.824 49.545 13.1 14.065 35.345 14.902 49.494 1.713 19.807-18.585 38.315-39.544 55.137-60.66 25.053-31.624 46.395-63.656 61.497-87.91 15.224-24.381 24.226-40.777 24.542-41.242 9.317-17.083 2.923-38.303-13.988-47.632-16.937-9.305-38.268-2.972-47.47 14.05zm-23.528-231.044l4.904 2.607-4.904-2.607 4.904 2.607-4.904-2.607c-.1.422-17.137 31.82-41.603 68.964-12.14 18.581-26.228 38.514-40.765 56.511-7.232 9.041-14.575 17.61-21.919 25.164-7.294 7.609-14.475 14.265-21.066 19.534-15.113 12.075-17.575 34.159-5.446 49.269 12.152 15.113 34.166 17.51 49.291 5.485 9.779-7.831 19.146-16.6 28.037-26.079 15.69-16.484 30.538-34.904 44.114-53.416 20.433-27.61 38.004-55.497 50.655-76.683 12.662-20.905 20.221-35.331 20.544-35.703 9.057-17.087 2.65-38.207-14.487-47.409-17.132-9.158-38.302-2.724-47.355 14.363zm632.492 214.499l24.481 4.471-24.481-4.471 24.481 4.471-24.481-4.471c-.111.488-4.582 25.015-12.989 63.694-6.28 28.998-14.898 65.991-25.426 106.791-15.662 60.986-35.983 130.488-59.611 193.218-11.852 31.401-24.477 61.051-37.731 87.099-13.039 26.055-26.711 48.231-39.739 64.57-16.185 20.087-12.935 49.483 7.232 65.592 20.121 16.138 49.495 12.943 65.557-7.167 16.822-20.909 31.594-45.036 45.447-71.26 12.125-22.929 23.317-47.51 33.745-73.165 18.508-44.905 34.792-92.902 48.957-139.739 21.231-70.385 37.777-138.288 48.996-188.747 11.338-50.59 17.41-83.75 17.41-84.226 4.67-25.326-12.129-49.607-37.581-54.277-25.442-4.635-49.796 12.276-54.267 37.617z"/><path fill="#3DB1FA" d="M674.328 333.119c.123.476 4.582 25.59 13.323 65.507 6.483 29.8 15.201 68.053 26.051 110.204 16.3 63.256 37.37 135.78 62.85 203.534 12.835 33.898 26.562 66.667 41.887 96.693 15.209 30.119 31.708 57.594 50.393 81.2 16.074 20.11 45.608 23.305 65.718 7.167 20.056-16.108 23.351-45.505 7.244-65.592-11.615-14.633-23.793-33.867-35.673-56.197-10.312-19.688-20.367-41.817-29.946-65.3-16.972-41.073-32.358-86.47-45.934-131.317-20.306-67.266-36.383-133.146-47.337-182.041-5.442-24.642-9.64-44.763-12.463-58.797-1.498-7.021-2.458-12.517-3.095-16.177-.411-1.87-.577-3.196-.838-4.271-.1-.373-.1-.783-.1-1.01l-.127-.212v-.05c-4.57-25.341-28.936-42.252-54.277-37.619-25.424 4.671-42.247 28.952-37.676 54.278z"/><path fill="#3DB1FA" d="M707.323 310.44c0 25.552-8.081 46.134-17.871 46.134-9.893 0-17.874-20.582-17.874-46.134 0-25.376 7.981-46.07 17.874-46.07 9.791 0 17.871 20.694 17.871 46.07z"/></svg>