<svg xmlns="http://www.w3.org/2000/svg" viewBox="0 0 30 30"><defs><linearGradient x1="0%" y1="50%" y2="50%" id="a"><stop stop-color="#FF534D" offset="0%"/><stop stop-color="#FF7950" offset="100%"/></linearGradient></defs><g fill="none" fill-rule="evenodd"><path d="M15 30C7.885 29.951.264 22.306 0 15 .064 7.71 7.71.062 15 0c7.306.265 14.952 7.886 15 15-.248 7.13-7.87 14.753-15 15z" fill="url(#a)"/><path d="M15.312 19.046l-3.384 1.779a1 1 0 0 1-1.45-1.054l.645-3.769-2.737-2.669a1 1 0 0 1 .554-1.705l3.783-.55 1.693-3.429a1 1 0 0 1 1.793 0l1.692 3.429 3.784.55a1 1 0 0 1 .554 1.705l-2.738 2.67.646 3.768a1 1 0 0 1-1.45 1.054l-3.385-1.78z" fill="#FFF"/></g></svg>